# xmcd
#
# Track frame offsets:
#	150
#	17045
#	30605
#	44525
#	66691
#	81322
#	95122
#	114471
#	129510
#	144146
#
# Disc length: 2164 seconds
#
# Revision: 1
# Processed by: cddbd v1.5.2PL0 Copyright (c) Steve Scherf et al.
# Submitted via: audiograbber 1.82.01
#
DISCID=8c08720a
DTITLE=ΤΑΚΗΣ ΒΟΥΗΣ - ΘΗΣΕΑΣ ΠΟΥ ΕΠΙΣΤΡΕΦΕΙ
DYEAR=2007
DGENRE=
TTITLE0=Δημήτρης Ζερβουδάκης - Θησέας που επιστρέφει
TTITLE1=Emilia Ottaviano - Lancette
TTITLE2=Μανώλης Μητσιάς - Της αλήθειας το μαχαίρι
TTITLE3=Δημήτρης Ζερβουδάκης - Τα μαύρα μάτια είν' φυλακή
TTITLE4=Emilia Ottaviano - Frammenti
TTITLE5=Τάκης Βούης - Όμορφο που' ναι τ' όμορφο
TTITLE6=Δημήτρης Ζερβουδάκης - Κατέβα βαλ' τα κόκκινα
TTITLE7=Γιάννης Κούτρας - Τα λόγια σου τ' αλλιώτικα
TTITLE8=Τάκης Βούης - Να σε πάρω και να φύγουμε
TTITLE9=Τάκης Βούης - Νανούρισμα
EXTD=
EXTT0=
EXTT1=
EXTT2=
EXTT3=
EXTT4=
EXTT5=
EXTT6=
EXTT7=
EXTT8=
EXTT9=
PLAYORDER=
